# xmcd
#
# Track frame offsets:
#	150
#	10680
#	20200
#	31007
#	44480
#	58987
#	73640
#	87370
#	103980
#	117037
#	128105
#	138382
#	150132
#	162242
#	171405
#	184797
#	201955
#
# Disc length: 2950 seconds
#
# Revision: 1
# Processed by: cddbd v1.5.1PL2 Copyright (c) Steve Scherf et al.
# Submitted via: audiograbber 1.83.01
#
DISCID=e80b8411
DTITLE=The Rimshots - The Rimshots
DYEAR=1993
DGENRE=Rockabilly
TTITLE0=I Don't Care
TTITLE1=Saving All My Money
TTITLE2=Dirty Deal
TTITLE3=Midnight Train
TTITLE4=Rollin' and Tumblin'
TTITLE5=Volcano
TTITLE6=Tennessee Border
TTITLE7=I Hope My Brain Still Works the Same
TTITLE8=Crazy Fool
TTITLE9=Mad At You
TTITLE10=Crawdad Hole
TTITLE11=Cold Sweat
TTITLE12=Boppin' High School Baby
TTITLE13=Tart
TTITLE14=I'm Gone
TTITLE15=Pick a Bale Of Cotton
TTITLE16=Boogie Children
EXTD=
EXTT0=
EXTT1=
EXTT2=
EXTT3=
EXTT4=
EXTT5=
EXTT6=
EXTT7=
EXTT8=
EXTT9=
EXTT10=
EXTT11=
EXTT12=
EXTT13=
EXTT14=
EXTT15=
EXTT16=
PLAYORDER=
